<svg version="1.1" id="Layer_1" xmlns="http://www.w3.org/2000/svg" xmlns:xlink="http://www.w3.org/1999/xlink" x="0px" y="0px"
	 width="100%" viewBox="0 0 496 496" enable-background="new 0 0 496 496" xml:space="preserve">
<path fill="#000000" opacity="1.000000" stroke="none" 
	d="
M284.905273,134.879303 
	C339.028168,150.207596 373.505676,185.206955 386.872833,238.906433 
	C400.340057,293.007782 385.755341,340.539307 345.416595,379.165070 
	C316.380280,406.968353 280.969269,418.994904 240.868713,416.414185 
	C188.759399,413.060608 150.297882,387.522247 125.055588,342.445038 
	C109.127510,314.000946 104.119713,283.116669 109.424332,250.743301 
	C115.051292,216.402710 130.784698,187.543335 156.909027,164.643295 
	C176.490829,147.478287 199.405487,136.924408 225.160751,132.596161 
	C245.110123,129.243561 264.881195,129.755493 284.905273,134.879303 
M258.509613,328.774323 
	C274.451660,329.006012 289.370453,333.498444 303.830566,339.784912 
	C315.949615,345.053589 328.278198,349.485962 341.598511,350.526489 
	C345.481567,350.829803 348.894043,351.087067 351.735657,347.202698 
	C368.223785,324.664246 376.353943,299.276886 376.433472,271.621796 
	C376.486420,253.205353 372.150696,235.488693 364.323517,218.537292 
	C340.398102,166.721741 281.420471,136.155594 225.503113,147.744614 
	C192.967590,154.487701 166.006622,170.879593 146.731705,198.350143 
	C122.080078,233.483566 116.416649,271.743225 129.390991,312.741943 
	C130.604797,316.577484 132.583710,317.895721 136.611481,317.701630 
	C150.430054,317.035675 164.375214,316.701660 177.926208,319.570160 
	C204.214111,325.134766 230.609634,329.125397 258.509613,328.774323 
M174.947327,342.394501 
	C168.639679,341.575256 162.351334,342.363556 156.057220,342.628021 
	C153.218140,342.747314 149.396255,340.384155 147.784012,343.469208 
	C145.996567,346.889496 149.812561,349.430603 151.720901,351.910004 
	C153.988297,354.855896 155.641373,359.243195 159.716492,359.676086 
	C169.764008,360.743378 179.217682,358.101013 187.639679,352.638275 
	C191.251373,350.295685 190.461258,346.916077 186.452255,345.080688 
	C183.083893,343.538544 179.441940,343.092407 174.947327,342.394501 
z"/>
<path fill="#000000" opacity="1.000000" stroke="none" 
	d="
M263.231201,264.523743 
	C264.493103,259.887146 265.606842,255.538666 266.797729,251.211441 
	C267.296906,249.397568 268.005341,247.412704 270.427124,248.057251 
	C272.980469,248.736816 271.708740,250.770844 271.314819,252.199432 
	C269.502960,258.770508 267.546753,265.301666 265.671600,271.855499 
	C265.144958,273.696198 264.608704,275.362671 262.148438,275.283630 
	C259.726288,275.205811 259.229645,273.469360 258.701263,271.678009 
	C257.303101,266.937775 255.905151,262.197479 254.104248,256.091248 
	C252.241272,262.080627 250.755508,266.752075 249.343735,271.445740 
	C248.744537,273.437866 248.177628,275.298431 245.542145,275.297058 
	C243.004532,275.295776 242.740219,273.357788 242.249359,271.615936 
	C240.400116,265.053680 238.528366,258.496887 236.787537,251.905701 
	C236.444473,250.606720 235.533905,248.760559 237.650543,248.071930 
	C239.721771,247.398071 240.725342,248.842834 241.207550,250.597794 
	C242.657730,255.875580 244.046097,261.170349 246.333542,266.596527 
	C247.771088,261.780884 249.183716,256.957550 250.658752,252.153427 
	C251.229675,250.293884 251.474060,248.012558 254.132919,247.933029 
	C256.864746,247.851288 257.121735,250.116974 257.671875,252.008530 
	C259.055176,256.764862 260.408600,261.529877 261.755615,266.227417 
	C263.001099,266.180603 262.791199,265.299408 263.231201,264.523743 
z"/>
<path fill="#000000" opacity="1.000000" stroke="none" 
	d="
M192.310760,270.482574 
	C188.517365,264.111725 188.501694,258.030487 192.802200,252.455414 
	C196.432465,247.749237 201.718155,246.756989 207.242416,248.122208 
	C212.739075,249.480637 216.201599,253.251541 217.106110,258.860870 
	C218.042618,264.668610 216.630371,269.929474 211.493515,273.352203 
	C206.503937,276.676758 201.155624,276.672974 195.945099,273.674988 
	C194.677719,272.945801 193.670959,271.763611 192.310760,270.482574 
M209.065659,269.635132 
	C210.756012,268.403473 211.702713,266.636292 212.242554,264.714752 
	C213.297974,260.958130 212.719147,257.458649 209.895523,254.604523 
	C207.553757,252.237503 204.822830,251.052475 201.371078,252.068893 
	C195.902985,253.679047 192.909637,259.573547 194.863159,265.114746 
	C196.958740,271.058929 202.161209,272.955627 209.065659,269.635132 
z"/>
<path fill="#000000" opacity="1.000000" stroke="none" 
	d="
M328.770691,251.252991 
	C328.913544,249.342300 329.411011,248.048935 331.010895,247.930862 
	C335.132782,247.626694 339.328400,247.060989 343.233826,249.002670 
	C347.705383,251.225830 349.655273,258.020050 345.926880,261.163330 
	C341.778412,264.660736 343.525940,267.155518 345.485687,270.316254 
	C346.250977,271.550476 347.361847,272.681305 347.166565,274.717438 
	C344.902832,275.813293 342.970490,275.655334 341.531494,273.153015 
	C341.200989,272.578217 340.942444,271.952972 340.553040,271.422760 
	C338.954407,269.246246 338.526947,265.076904 335.295074,265.543701 
	C331.647125,266.070648 333.898468,269.950165 333.335754,272.293243 
	C333.019379,273.610687 333.063751,275.039581 331.243408,275.106354 
	C329.186127,275.181885 328.789001,273.727142 328.779968,272.126221 
	C328.741577,265.326630 328.751556,258.526825 328.770691,251.252991 
M341.813568,253.582077 
	C340.709290,252.392609 339.239929,252.304413 337.751068,252.138336 
	C334.179626,251.739990 333.281158,253.490982 333.265015,256.783142 
	C333.247375,260.382446 335.127045,260.906982 337.967163,260.601929 
	C341.928345,260.176514 343.560242,258.178192 341.813568,253.582077 
z"/>
<path fill="#000000" opacity="1.000000" stroke="none" 
	d="
M151.662537,265.953064 
	C151.667374,260.981781 151.650192,256.504547 151.691559,252.027878 
	C151.703568,250.729111 151.409821,248.831833 152.755417,248.439133 
	C157.110046,247.168259 161.602829,247.067917 165.860565,248.878662 
	C168.866959,250.157211 170.319885,252.639709 170.328796,255.992615 
	C170.342911,261.304993 167.511856,264.277557 161.449966,264.270874 
	C157.530609,264.266541 156.117096,265.632111 156.254288,269.505676 
	C156.324799,271.496552 157.464798,274.995087 153.932404,274.946167 
	C150.391281,274.897064 152.095871,271.438141 151.696884,269.425629 
	C151.507095,268.468231 151.663330,267.442261 151.662537,265.953064 
M164.106705,253.091568 
	C161.358414,252.331100 158.197693,250.454926 156.548203,254.379486 
	C155.858185,256.021271 155.570389,258.602722 157.368942,259.954956 
	C159.263412,261.379272 161.564301,260.729156 163.453140,259.512909 
	C165.770966,258.020416 166.350357,255.991257 164.106705,253.091568 
z"/>
<path fill="#000000" opacity="1.000000" stroke="none" 
	d="
M298.640808,252.446976 
	C295.822754,257.946625 296.567383,259.235352 302.242523,259.705078 
	C303.611511,259.818359 305.728302,259.202789 305.846283,261.303192 
	C305.990387,263.868835 303.648071,263.140717 302.145691,263.334869 
	C300.533936,263.543091 298.801819,262.992737 297.210815,264.212219 
	C296.621582,266.386902 296.709381,268.644897 297.208069,270.919067 
	C299.452332,272.241486 301.843140,271.418640 304.102661,271.705566 
	C305.402252,271.870605 307.006836,271.740387 306.929901,273.669586 
	C306.866730,275.253815 305.452332,275.170776 304.320221,275.313446 
	C304.155975,275.334137 303.988434,275.334137 303.822418,275.334412 
	C289.454895,275.357086 292.117035,276.634796 291.886139,264.563690 
	C291.806702,260.410767 291.958252,256.253296 291.871796,252.100616 
	C291.805847,248.931717 293.184967,247.532166 296.366852,247.689621 
	C299.019562,247.820908 301.684143,247.695999 304.340027,247.785751 
	C305.710144,247.832047 307.123322,248.116776 306.995850,249.980911 
	C306.893982,251.470261 305.665833,251.759552 304.491669,251.884430 
	C302.677887,252.077316 300.852386,252.160004 298.640808,252.446976 
z"/>
<path fill="#000000" opacity="1.000000" stroke="none" 
	d="
M166.034149,297.332153 
	C164.738037,297.669769 163.602737,298.228760 162.091019,298.973114 
	C159.912628,295.593384 160.578827,291.830750 161.519043,288.346802 
	C162.180923,285.894226 164.792114,286.492645 166.652100,286.995422 
	C168.948303,287.616150 170.782501,289.406952 169.711731,291.744690 
	C168.577393,294.221161 168.831863,296.414337 169.557693,298.670654 
	C167.643616,299.931915 166.987625,298.571869 166.034149,297.332153 
z"/>
<path fill="#000000" opacity="1.000000" stroke="none" 
	d="
M304.903503,292.205017 
	C305.617340,294.552734 306.936737,296.402161 306.381134,299.186584 
	C303.168518,297.514893 300.116669,297.181702 296.556885,299.644501 
	C296.717224,294.187897 298.914124,290.582367 300.706757,286.786072 
	C303.820190,287.911743 303.903259,290.143768 304.903503,292.205017 
z"/>
<path fill="#000000" opacity="1.000000" stroke="none" 
	d="
M202.431931,297.748840 
	C200.152008,297.073273 198.830048,299.211578 196.216858,298.789124 
	C196.567291,294.312836 198.572815,290.639618 201.082672,286.029114 
	C204.517929,290.135559 205.323669,294.242767 206.519363,298.014099 
	C204.816422,299.875885 203.878555,298.209961 202.431931,297.748840 
z"/>
<path fill="#000000" opacity="1.000000" stroke="none" 
	d="
M264.289459,286.906067 
	C267.051880,286.557892 268.724884,287.383942 269.494110,289.466888 
	C268.099487,292.018799 266.646820,289.634766 265.028473,290.265839 
	C266.599731,292.554657 270.908051,292.987488 269.759644,296.847260 
	C268.719452,300.343201 263.647583,300.017578 261.782104,296.361908 
	C262.394318,295.381256 263.169800,295.790466 263.929718,296.123016 
	C264.688782,296.455231 265.450500,296.909729 266.348755,295.652344 
	C263.878784,293.347504 257.528442,291.739777 264.289459,286.906067 
z"/>
<path fill="#000000" opacity="1.000000" stroke="none" 
	d="
M183.316437,290.422852 
	C184.145157,291.626892 186.053421,291.347015 186.129883,293.177612 
	C185.913269,295.001556 183.150726,293.770508 182.986084,295.709106 
	C183.278931,297.532074 185.902573,296.411530 186.244965,298.705383 
	C184.041687,299.617401 181.032593,300.388214 180.008148,298.034698 
	C178.606506,294.814636 178.767410,290.683533 180.621536,287.612457 
	C181.817123,285.632172 184.627182,286.429260 186.641266,287.398560 
	C186.452271,290.123138 183.931534,288.794891 183.316437,290.422852 
z"/>
<path fill="#000000" opacity="1.000000" stroke="none" 
	d="
M337.816162,289.740784 
	C336.654633,292.049072 339.791107,291.363892 339.777710,292.458069 
	C339.967010,294.819794 337.419952,293.860535 337.200836,295.576080 
	C337.231415,297.397491 339.806396,296.590546 340.411102,298.710236 
	C340.278748,298.773315 339.854645,299.143738 339.423218,299.152466 
	C337.405579,299.193298 334.465515,300.465149 333.871155,297.709412 
	C333.165100,294.435730 332.565674,290.550720 334.593018,287.646667 
	C335.937714,285.720520 338.639679,286.413971 340.666656,287.445496 
	C340.487366,289.659332 339.104156,289.408661 337.816162,289.740784 
z"/>
<path fill="#000000" opacity="1.000000" stroke="none" 
	d="
M249.576965,294.268982 
	C248.563324,296.353363 248.563324,296.353363 251.248611,298.421997 
	C249.177307,299.832123 246.389038,300.121460 245.487549,298.468475 
	C243.736771,295.258301 243.909668,291.168396 245.333878,287.933716 
	C246.323166,285.686829 249.222351,286.462891 251.269775,287.556000 
	C251.370590,290.203979 248.888809,289.098846 248.180328,290.122284 
	C246.879913,292.365723 252.966614,291.209381 249.576965,294.268982 
z"/>
<path fill="#000000" opacity="1.000000" stroke="none" 
	d="
M219.666428,295.789429 
	C220.515869,296.982361 221.934402,297.219177 222.089279,298.701630 
	C220.092697,299.597382 217.572418,300.192902 216.745697,298.190247 
	C215.313599,294.721069 215.334000,290.889709 217.224014,286.951752 
	C220.325806,289.513245 218.497665,292.853546 219.666428,295.789429 
z"/>
<path fill="#000000" opacity="1.000000" stroke="none" 
	d="
M280.550446,289.668274 
	C279.131592,288.407166 278.901764,287.307770 280.613068,286.979462 
	C282.785400,286.562653 285.092651,286.156982 287.917084,287.967224 
	C282.371796,290.165955 285.516418,295.220734 283.502716,298.908905 
	C280.161743,296.423859 282.877228,292.446625 280.550446,289.668274 
z"/>
<path fill="#000000" opacity="1.000000" stroke="none" 
	d="
M317.704956,286.904907 
	C320.026764,286.835510 322.035919,286.163635 324.024048,287.422424 
	C324.233124,289.724609 320.897247,290.146576 321.272888,292.739960 
	C321.549438,294.649689 321.984344,296.935150 320.468536,298.662964 
	C318.765594,298.413330 318.552887,297.171539 318.777832,296.370483 
	C319.730713,292.977539 316.790833,290.263733 317.704956,286.904907 
z"/>
</svg>